<svg width="20" height="20" viewBox="0 0 20 20" fill="none" xmlns="http://www.w3.org/2000/svg">
<path d="M15 6.66666H14.1667V4.99999C14.1667 2.69999 12.3 0.833328 10 0.833328C7.70004 0.833328 5.83337 2.69999 5.83337 4.99999V6.66666H5.00004C4.08337 6.66666 3.33337 7.41666 3.33337 8.33333V16.6667C3.33337 17.5833 4.08337 18.3333 5.00004 18.3333H15C15.9167 18.3333 16.6667 17.5833 16.6667 16.6667V8.33333C16.6667 7.41666 15.9167 6.66666 15 6.66666ZM10 14.1667C9.08337 14.1667 8.33337 13.4167 8.33337 12.5C8.33337 11.5833 9.08337 10.8333 10 10.8333C10.9167 10.8333 11.6667 11.5833 11.6667 12.5C11.6667 13.4167 10.9167 14.1667 10 14.1667ZM12.5834 6.66666H7.41671V4.99999C7.41671 3.57499 8.57504 2.41666 10 2.41666C11.425 2.41666 12.5834 3.57499 12.5834 4.99999V6.66666Z" fill="#A5B0C1"/>
</svg>
